<svg width="52" height="38" viewBox="0 0 52 38" fill="none" xmlns="http://www.w3.org/2000/svg">
<g opacity="0.5">
<path d="M-13.7414 -23.9646C-13.448 -23.8549 -13.1531 -23.7511 -12.8727 -23.6166C-11.9029 -23.1506 -10.93 -22.6838 -9.97239 -22.1959C-6.97955 -20.672 -4.13724 -18.9181 -1.5891 -16.7182C-0.268966 -15.5777 1.13825 -14.549 2.58644 -13.5784C4.13583 -12.5369 5.69349 -11.5027 7.25431 -10.4801C9.59514 -8.94479 11.802 -7.24106 13.8032 -5.29066C17.0878 -2.08701 20.1716 1.29862 23.0108 4.89859C23.481 5.49203 23.9769 6.06089 24.5359 6.57123C24.8889 6.89468 25.2592 7.20076 25.647 7.47697C25.8912 7.65202 26.1776 7.77555 26.4598 7.89165C26.7279 8.00087 27.0127 8.00145 27.2981 7.91738C27.5931 7.83274 27.8956 7.79094 28.2059 7.81404C28.914 7.86473 29.5856 8.06273 30.2423 8.31641C31.2342 8.70037 32.1399 9.24035 33.0211 9.82405C33.4268 10.0925 33.8289 10.363 34.246 10.6125C35.0702 11.1025 35.9028 11.5727 36.7277 12.0598C37.1478 12.31 37.5865 12.515 38.0398 12.6893C38.8815 13.0081 39.7469 13.2389 40.6257 13.4199C42.0706 13.7205 43.538 13.867 44.9996 14.0464C46.2837 14.2036 47.5623 14.3814 48.8414 14.5687C49.4688 14.6606 50.0841 14.8091 50.6789 15.0337C51.0755 15.1834 51.4286 15.4002 51.706 15.7223C52.0146 16.081 52.0822 16.4885 51.8995 16.9204C51.6937 17.4026 51.324 17.706 50.8004 17.805C50.6702 17.83 50.5381 17.8387 50.4122 17.8711C50.3303 17.8932 50.2407 17.9321 50.1833 17.9922C49.9473 18.234 49.7208 18.4876 49.4921 18.7376C49.4513 18.7832 49.4105 18.8289 49.3689 18.8775C49.3819 18.9469 49.3913 19.006 49.4029 19.0687C49.4129 19.1374 49.4267 19.2038 49.433 19.2746C49.568 20.5136 49.3791 21.6977 48.8242 22.8186C48.6371 23.1959 48.4111 23.5533 48.194 23.9132C48.0675 24.1244 47.9713 24.3406 47.9525 24.5869C47.9311 24.8545 47.9001 25.1226 47.8758 25.3894C47.8092 26.1191 47.6163 26.8121 47.2736 27.462C46.8048 28.3452 46.1134 28.9617 45.1474 29.2694C44.036 29.6231 42.9604 29.5969 41.9219 29.0215C41.8918 29.004 41.8593 28.9954 41.8217 28.9822C41.7839 29.0286 41.7476 29.0692 41.7114 29.1098C41.4657 29.3992 41.2295 29.7005 40.9714 29.9772C40.5601 30.4234 40.0796 30.7853 39.5346 31.0577C39.0046 31.3215 38.4626 31.5475 37.8935 31.7098C37.8287 31.7271 37.7674 31.7547 37.7361 31.7652C37.7328 32.1067 37.7567 32.4177 37.7214 32.7255C37.6254 33.5292 37.3167 34.2289 36.6208 34.7092C36.3523 34.8951 36.0825 35.0744 35.8032 35.2418C35.2596 35.5679 34.6658 35.7864 34.0663 35.9909C33.6688 36.1267 33.3609 36.365 33.1468 36.7256C33.0468 36.8968 32.9241 37.0588 32.8051 37.2187C32.6036 37.4853 32.3439 37.6736 32.0263 37.7836C31.1463 38.0891 30.2728 38.0886 29.4327 37.6697C27.5693 36.7361 26.317 35.2964 25.8145 33.2589C25.5709 32.2705 25.4625 31.2616 25.3965 30.2483C25.3913 30.1621 25.3793 30.0772 25.3683 29.9769C25.3145 30.0003 25.2899 30.0094 25.2674 30.0222C24.9032 30.258 24.6588 30.5666 24.5664 31.0037C24.4621 31.4973 24.3341 31.9845 24.1854 32.4663C23.9812 33.1311 23.6584 33.7423 23.2393 34.2995C22.7551 34.9462 21.988 35.1499 21.2303 34.8598C20.4557 34.5621 20.0678 33.9686 19.9679 33.1756C19.8986 32.6451 19.9405 32.1129 20.0031 31.5862C20.1768 30.106 20.4451 28.6385 20.7578 27.1828C21.2652 24.8274 21.7355 22.4683 21.8908 20.0566C21.9718 18.803 22.0061 17.5463 22.0115 16.2914C22.0123 15.3242 22.0501 14.3605 22.1508 13.398C22.2856 12.121 22.7868 11.0234 23.682 10.0969C23.8086 9.96737 23.9426 9.84605 24.0531 9.70592C24.1743 9.54979 24.2919 9.38328 24.3778 9.20518C24.6005 8.73062 24.5832 8.24228 24.4272 7.75151C24.2185 7.08021 23.8497 6.49811 23.4248 5.94816C20.5987 2.26377 17.4868 -1.17019 14.2042 -4.45184C12.4709 -6.18628 10.6154 -7.78375 8.58738 -9.17592C7.1579 -10.1572 5.70576 -11.113 4.26031 -12.0703C2.04509 -13.5312 -0.13073 -15.0445 -2.1511 -16.7707C-3.05153 -17.5417 -3.99196 -18.27 -4.97868 -18.9322C-6.94997 -20.2527 -9.01821 -21.4012 -11.1513 -22.4382C-12.0077 -22.8551 -12.8727 -23.2523 -13.7323 -23.6575C-13.836 -23.7071 -13.9555 -23.7453 -14 -23.8859C-13.9413 -24.0336 -13.8341 -24.0082 -13.7361 -23.9726L-13.7414 -23.9646ZM36.5455 24.839C35.5317 23.8304 34.6173 22.7353 33.7404 21.6062C32.6041 20.1472 31.4918 18.6695 30.4733 17.1257C29.1602 15.1358 28.1461 12.9996 27.3844 10.7485C27.2096 10.2338 27.0973 9.69817 26.9664 9.17324C26.9294 9.02832 26.9267 8.87369 26.9055 8.71727C26.8427 8.70365 26.7909 8.69612 26.734 8.68408C26.5795 8.9287 26.5166 9.19775 26.5094 9.45968C26.4933 10.0019 26.4844 10.5523 26.5358 11.0906C26.6131 11.909 26.851 12.6949 27.1367 13.4684C27.6462 14.845 28.3156 16.1449 29.0568 17.4137C29.2805 17.7938 29.5006 18.176 29.7115 18.5684C29.6643 18.5086 29.6103 18.4503 29.5706 18.3863C28.5651 16.8177 27.6471 15.2065 26.9983 13.4535C26.736 12.7459 26.5244 12.0267 26.4215 11.28C26.3231 10.5753 26.2834 9.86425 26.4134 9.15767C26.4418 9.00506 26.4909 8.85796 26.5384 8.66961C26.2399 8.74388 26.0394 8.90084 25.9471 9.14949C25.8308 9.46398 25.718 9.78884 25.6579 10.1183C25.5211 10.8733 25.5155 11.6351 25.5966 12.4043C25.7849 14.1978 26.3256 15.8937 27.0034 17.5507C27.7896 19.4754 28.7785 21.294 29.8885 23.0506C31.6253 25.8069 33.6422 28.3457 35.9152 30.6858C36.1602 30.9396 36.4128 31.1892 36.6579 31.443C36.7096 31.4977 36.7569 31.5574 36.8006 31.6067C37.8337 31.5085 38.7292 31.1098 39.6443 30.6503C39.5734 30.5843 39.526 30.5371 39.4777 30.4928C37.5601 28.8317 35.8592 26.9771 34.3961 24.9095C34.0843 24.4683 33.8145 24.0005 33.529 23.5443C33.4884 23.4832 33.4628 23.4136 33.4418 23.3389C35.1747 26.0626 37.3167 28.4307 39.765 30.5663C40.1054 30.3367 40.4154 30.1022 40.709 29.7879C39.864 29.1636 39.0663 28.5048 38.3742 27.7359L38.4083 27.6916C38.4603 27.7337 38.5152 27.7767 38.5656 27.8247C39.054 28.2565 39.5387 28.6904 40.0354 29.115C40.2724 29.3165 40.5291 29.4917 40.7789 29.6809C40.8171 29.6565 40.8455 29.6452 40.8599 29.6271C41.14 29.2684 41.4363 28.9202 41.6952 28.5464C41.9472 28.1865 42.0705 27.7639 42.1545 27.334C42.1973 27.1161 42.2334 26.8996 42.2851 26.6841C42.3399 26.4569 42.4125 26.2344 42.4878 25.9781C42.3457 25.7768 42.1871 25.5429 42.0202 25.3162C40.7731 23.6455 39.4825 22.0071 38.0701 20.4682C37.6343 19.9939 37.1865 19.5289 36.7296 19.0741C36.4501 18.7954 36.1586 18.526 35.8511 18.2807C34.5764 17.2653 33.4642 16.1049 32.5267 14.7775C32.0961 14.1663 31.6572 13.5624 31.2311 12.9461C30.8093 12.3374 30.341 11.7601 29.8554 11.2003C29.8285 11.1711 29.8053 11.1398 29.7783 11.1106L29.7543 11.1293C29.7592 11.1464 29.7566 11.1677 29.766 11.1796C30.4765 12.2329 31.0389 13.366 31.6238 14.4863C32.548 16.2625 33.6199 17.9493 34.8926 19.5012C35.4809 20.2204 36.0994 20.9099 36.7614 21.5671C36.7913 21.5971 36.8183 21.6263 36.8277 21.6853C36.7757 21.6432 36.7184 21.609 36.674 21.5626C36.1946 21.0736 35.6958 20.5981 35.2413 20.0874C33.7373 18.3953 32.5196 16.5094 31.4751 14.5095C31.2592 14.1001 31.0441 13.6878 30.835 13.2771C30.3158 12.2654 29.7091 11.3089 29.0499 10.3824C28.6453 9.81583 28.1157 9.36048 27.5415 8.96544C27.408 8.87329 27.2503 8.81238 27.0863 8.72779C27.0328 8.96167 27.1046 9.15358 27.1453 9.34348C27.4419 10.7701 28.0078 12.102 28.5975 13.4278C29.2995 15.0065 30.1737 16.4867 31.1601 17.9025C32.4648 19.7708 33.8251 21.5974 35.2964 23.3405C35.8414 23.9853 36.4188 24.6041 36.9804 25.2345L36.9749 25.255C36.8288 25.1156 36.6849 24.9798 36.5455 24.839ZM27.3955 8.40197C28.9925 8.70231 30.3978 9.43212 31.7181 10.3371C32.9473 11.1801 34.1492 12.0661 35.3655 12.9339C36.6872 13.8802 37.9917 14.8438 39.3286 15.7689C40.7404 16.7454 42.2085 17.6302 43.7704 18.3546C43.9817 18.4518 44.1967 18.5469 44.408 18.6441L44.3969 18.6851C44.3054 18.6607 44.213 18.6392 44.1268 18.6067C43.3603 18.3143 42.6277 17.943 41.9155 17.5426C40.2708 16.6202 38.7202 15.5595 37.1978 14.453C35.4644 13.1896 33.7257 11.9343 31.9771 10.692C31.0467 10.0324 30.0713 9.44554 29.002 9.03152C28.6261 8.88728 28.2371 8.78035 27.8557 8.65663C27.8114 8.64481 27.7647 8.64178 27.6818 8.63223C27.7336 8.68687 27.753 8.72034 27.7845 8.74445C28.5478 9.33125 29.2252 10.0019 29.8609 10.7212C30.2273 11.1362 30.592 11.557 30.9463 11.9813C31.9045 13.1258 33.0554 14.0484 34.341 14.7997C34.9816 15.1716 35.6465 15.5123 36.32 15.8207C37.4699 16.3473 38.5521 16.9721 39.5693 17.7209C40.2062 18.1891 40.8567 18.6422 41.5643 19.0006C42.7926 19.6235 44.0924 19.9576 45.4671 20.0134C46.1244 20.0411 46.7725 19.9972 47.4133 19.8509C47.7304 19.7785 48.0731 19.5872 48.2544 19.3843C46.4289 18.8157 44.6389 18.1623 43.0068 17.1458C44.7343 18.0432 46.5384 18.7381 48.3857 19.2842C48.7281 19.118 49.7899 18.0663 49.9605 17.7381C49.8636 17.7216 49.7721 17.6972 49.6809 17.6949C48.816 17.6621 47.9748 17.4942 47.1354 17.308C45.124 16.8657 43.2481 16.0731 41.4661 15.0607C40.4285 14.4698 39.4101 13.8432 38.3824 13.2393C38.1855 13.124 37.9812 13.0129 37.7689 12.9312C36.6222 12.4871 35.5588 11.8862 34.5329 11.2168C33.962 10.8446 33.4001 10.4623 32.8337 10.085C31.9078 9.46741 30.9522 8.90154 29.8978 8.52605C29.3087 8.31551 28.7087 8.13348 28.075 8.11208C27.8897 8.10662 27.7017 8.13498 27.5166 8.16412C27.4244 8.17723 27.3245 8.20713 27.2837 8.34701C27.3286 8.36841 27.3652 8.39702 27.4015 8.40355L27.3955 8.40197ZM28.5209 24.5327C28.4772 24.8478 28.4159 25.1581 28.3722 25.4731C28.3568 25.6009 28.3487 25.7369 28.3794 25.8582C28.7309 27.3277 29.322 28.7072 29.951 30.0749C29.9768 30.132 29.9996 30.1883 30.0224 30.2447C30.0224 30.2447 30.0163 30.2556 29.9966 30.2818C29.267 28.8998 28.6647 27.4797 28.2602 25.9363C28.2234 26.0144 28.2042 26.0502 28.1881 26.0867C28.0817 26.341 27.9833 26.6006 27.8688 26.8496C27.8142 26.9701 27.8057 27.084 27.8348 27.2112C28.3077 29.112 28.8849 30.9778 29.6702 32.7766C29.6802 32.7981 29.6873 32.8189 29.6824 32.8489C29.2085 31.975 28.8526 31.0508 28.5489 30.1092C28.2466 29.1742 27.9778 28.2324 27.6906 27.2764C27.6611 27.3156 27.6331 27.349 27.6132 27.3876C27.3637 27.8676 27.0607 28.3113 26.696 28.7135C26.6145 28.8048 26.593 28.8964 26.5963 29.0135C26.6322 29.868 26.7565 30.7116 26.9395 31.5488C27.2366 32.9033 27.6469 34.2251 28.1891 35.5037C28.3556 35.8967 28.5362 36.2841 28.772 36.6548C29.2178 36.7392 29.63 36.6544 30.0154 36.4337C30.1988 36.3287 30.3715 36.1926 30.5252 36.0451C30.7941 35.7871 31.0646 35.5231 31.2976 35.2335C31.7092 34.7277 32.2372 34.4947 32.8813 34.5126C33.249 34.5228 33.6188 34.5366 33.9829 34.5835C34.9027 34.7063 35.7475 34.5077 36.5452 34.0608C36.9553 33.831 37.2238 33.5037 37.3372 33.0471C37.4205 32.7144 37.4436 32.3813 37.4083 32.0421C37.4032 31.9905 37.3826 31.9379 37.366 31.8581C36.2961 32.0344 35.2603 31.9309 34.2247 31.5447C34.2408 31.6024 34.249 31.6423 34.2626 31.6742C34.4765 32.1615 34.6277 32.6699 34.7581 33.1852C34.7784 33.2629 34.7807 33.3483 34.76 33.437C34.7437 33.3918 34.7236 33.3488 34.7073 33.3036C34.5164 32.7658 34.3294 32.2259 34.1386 31.6882C34.0746 31.5141 33.9587 31.392 33.7866 31.3022C33.1402 30.9633 32.654 30.441 32.2033 29.881C31.5339 29.0397 31.091 28.086 30.7445 27.0796C30.6446 26.7922 30.5476 26.5057 30.4373 26.2218C30.3981 26.1203 30.3405 26.0169 30.2615 25.9456C29.6648 25.4221 29.2206 24.7791 28.7689 24.1403C28.7189 24.0673 28.6682 23.9972 28.6182 23.9242L28.5697 23.9396C28.5517 24.1358 28.5448 24.3381 28.5171 24.5349L28.5209 24.5327ZM23.2412 11.4053C23.14 11.8401 23.0528 12.2817 23.0004 12.7232C22.9321 13.2829 22.9 13.8491 22.8627 14.4108C22.8443 14.6792 22.8444 14.9493 22.8512 15.2181C22.8633 15.9846 22.8599 16.7501 22.9039 17.5157C22.938 18.0713 23.0262 18.6257 23.1219 19.1757C23.2439 19.8867 23.3815 20.5988 23.537 21.303C23.7863 22.4468 24.1271 23.568 24.4888 24.6822C24.8138 25.686 25.1604 26.6799 25.5025 27.6789C25.5308 27.7619 25.5695 27.8413 25.6054 27.92C26.544 27.561 27.8467 26.2846 28.1193 25.0601C27.5718 24.201 27.0844 23.2952 26.6411 22.3666C26.2013 21.4483 25.7974 20.5145 25.4756 19.546C26.2584 21.3536 27.0779 23.1427 28.1173 24.8208L28.1604 24.8135C28.1724 24.757 28.1912 24.6992 28.1943 24.6404C28.214 24.297 28.2306 23.9528 28.2502 23.6093C28.2592 23.4233 28.2017 23.2603 28.0945 23.1061C27.1763 21.7775 26.4646 20.3407 25.9008 18.8365C25.4009 17.5065 25.0619 16.1314 24.8502 14.7305C24.7101 13.8043 24.685 12.8741 24.7586 11.9421C24.796 11.462 24.8675 10.9848 24.9086 10.5027C24.9239 10.3402 24.8991 10.1735 24.8795 10.0112C24.8704 9.92709 24.8167 9.85622 24.719 9.84273C24.6192 9.82552 24.5692 9.89384 24.5213 9.96588C24.3306 10.2511 24.1995 10.5616 24.1031 10.8846C23.9191 11.4857 23.8409 12.1056 23.7893 12.7326C23.7343 13.4309 23.7498 14.126 23.7972 14.8203C23.8383 15.3966 23.9076 15.9742 23.9814 16.5467C24.1756 18.0245 24.5306 19.4698 24.9912 20.8868C25.396 22.135 25.8963 23.3458 26.5154 24.5035C26.5298 24.5324 26.5442 24.5614 26.5353 24.6061C26.4977 24.5459 26.4593 24.4885 26.4225 24.4253C25.7158 23.2285 25.2047 21.952 24.7802 20.6358C24.4814 19.7112 24.2341 18.772 24.0544 17.8163C23.93 17.1612 23.8399 16.4964 23.7549 15.8361C23.6948 15.3772 23.6481 14.9156 23.6325 14.456C23.5957 13.3814 23.616 12.3063 23.8658 11.2485C23.9676 10.8233 24.1062 10.4142 24.2928 10.0149C23.8087 10.3789 23.3889 10.7977 23.2441 11.4061L23.2412 11.4053ZM46.5842 27.9534C46.7149 27.7621 46.825 27.5999 46.9458 27.4216C46.5125 27.1145 46.0559 26.8702 45.7175 26.4689C46.1381 26.7413 46.5586 27.0137 46.9982 27.2974C47.0457 27.2033 47.0816 27.1406 47.1153 27.0742C47.4128 26.4626 47.5236 25.8042 47.5841 25.1325C47.5975 24.9885 47.611 24.8444 47.6185 24.6988C47.6401 24.3245 47.759 23.9887 47.9731 23.6752C48.5175 22.8876 48.8926 22.0233 49.0731 21.0821C49.1777 20.5289 49.1881 19.9726 49.146 19.4117C49.1405 19.338 49.1187 19.2662 49.0969 19.1473C48.1437 19.9955 47.0372 20.5076 45.8584 20.9941C46.4404 21.2781 47.0122 21.506 47.4915 21.9009C47.451 21.8869 47.4104 21.873 47.3736 21.8568C46.8548 21.6085 46.336 21.3602 45.8135 21.114C45.7487 21.0842 45.6638 21.0584 45.5969 21.0719C45.277 21.1311 44.9621 21.2073 44.6124 21.2836C44.6572 21.3521 44.7 21.4169 44.7419 21.4846C45.0452 21.9456 45.2411 22.4408 45.25 22.9959C45.2505 23.1468 45.2376 23.3005 45.2012 23.4478C44.9925 24.2936 44.5635 25.0052 43.8485 25.5212C43.5619 25.7275 43.2637 25.918 42.9633 26.1049C42.8188 26.1951 42.722 26.3075 42.6867 26.474C42.6307 26.7292 42.5717 26.9836 42.5125 27.2505C42.7869 27.5247 43.0511 27.7899 43.3182 28.0559C42.9902 27.9338 42.7818 27.6615 42.506 27.4278C42.4324 27.6657 42.3754 27.8892 42.2948 28.1064C42.2112 28.3228 42.104 28.533 41.9927 28.7702C42.7113 29.1347 43.4629 29.2943 44.2621 29.1714C45.1266 29.0408 45.9079 28.7373 46.5131 28.0412C46.4442 27.9914 46.3885 27.9514 46.3357 27.9122C45.804 27.5003 45.2715 27.0912 44.7405 26.6763C44.6724 26.6236 44.6195 26.5498 44.5575 26.4862L44.5913 26.4544C45.2501 26.9473 45.908 27.4432 46.5931 27.9558L46.5842 27.9534ZM21.8806 23.0818C21.6301 24.6358 21.3139 26.1753 20.9792 27.713C20.686 29.0609 20.4439 30.4191 20.2986 31.7938C20.2461 32.2949 20.2032 32.7955 20.2951 33.3006C20.4252 34.0169 20.9028 34.5243 21.602 34.6669C22.0403 34.7555 22.4121 34.6442 22.7055 34.2953C23.0518 33.8789 23.3342 33.4296 23.4045 32.8862C23.4454 32.5578 23.4656 32.224 23.4531 31.894C23.3997 30.281 23.3413 28.6635 23.2657 27.0509C23.1795 25.2658 23.0711 23.481 22.9752 21.6965C22.9127 20.5177 22.853 19.3396 22.7904 18.1607C22.7691 17.7813 22.7315 17.4037 22.7198 17.0237C22.7054 16.5833 22.7073 16.1409 22.7085 15.7015C22.7094 15.2745 22.7111 14.8447 22.7335 14.4203C22.7714 13.774 22.8248 13.1286 22.8871 12.4856C22.9148 12.1946 22.9773 11.9035 22.9955 11.6005C22.9581 11.6691 22.9185 11.7339 22.8869 11.804C22.6558 12.2983 22.5398 12.8233 22.4777 13.3596C22.3653 14.3064 22.3345 15.2562 22.328 16.2093C22.3195 17.3818 22.2732 18.5536 22.2424 19.7264C22.24 19.7823 22.2377 19.8382 22.2361 19.8912C22.2445 20.5185 22.2559 21.1466 22.2606 21.776C22.2685 22.6168 22.2853 23.4599 22.271 24.301C22.2526 25.2164 22.2089 26.1314 22.103 27.0423C21.9831 28.0876 21.8787 29.134 21.7559 30.1786C21.6348 31.2048 21.493 32.2255 21.2122 33.2217C21.1799 33.3418 21.1416 33.4604 21.1012 33.5753C21.0902 33.6163 21.0593 33.6489 21.0364 33.6868L20.998 33.6765C21.0568 33.4346 21.1199 33.2002 21.1653 32.961C21.3168 32.1628 21.4772 31.3669 21.6006 30.5675C21.6916 29.9824 21.7329 29.3935 21.7966 28.8043C21.8549 28.2701 21.9161 27.7368 21.9677 27.204C22.0053 26.8057 22.0391 26.4096 22.0611 26.0103C22.095 25.3785 22.1326 24.7447 22.1384 24.1117C22.1432 23.3529 22.1161 22.595 22.1024 21.8343C22.1012 21.8152 22.0904 21.7966 22.0765 21.7426C22.0081 22.2081 21.9448 22.6435 21.8755 23.0773L21.8806 23.0818ZM25.4309 9.98549C25.2152 10.6221 25.0653 11.2732 25.0544 11.9487C25.0464 12.3549 25.0161 12.7614 25.0236 13.1686C25.0416 14.1722 25.2066 15.1586 25.4237 16.1399C25.8522 18.076 26.5516 19.9116 27.5383 21.6322C28.1673 22.7297 28.8711 23.7844 29.6409 24.7938C29.8893 25.1176 30.1617 25.4227 30.4672 25.699C30.582 25.8018 30.6731 25.9455 30.7331 26.0871C30.8496 26.3601 30.9406 26.6451 31.0362 26.925C31.376 27.9328 31.8181 28.8893 32.4883 29.7277C32.9739 30.3347 33.5268 30.856 34.2459 31.1954C34.9767 31.538 35.7472 31.6273 36.5414 31.6287C36.5733 31.6278 36.6046 31.6173 36.6753 31.6016C36.6031 31.5289 36.5572 31.4759 36.5047 31.4241C33.3029 28.3243 30.6318 24.8288 28.4816 20.9384C27.5392 19.2296 26.7372 17.4577 26.1495 15.5954C25.9117 14.8441 25.7237 14.0841 25.5834 13.3117C25.4547 12.602 25.4099 11.8865 25.4162 11.1689C25.4198 10.7207 25.4788 10.2778 25.5808 9.84017C25.591 9.80207 25.5916 9.76453 25.5989 9.72565L25.5635 9.7162C25.5205 9.80525 25.4717 9.89272 25.4397 9.98785L25.4309 9.98549ZM49.6353 16.018C49.5344 16.0633 49.4265 16.0408 49.3288 16.0273C46.8076 15.6563 44.3589 15.0157 41.9909 14.0636C41.7684 13.9729 41.5242 13.9392 41.2864 13.882C40.5623 13.714 39.8375 13.5489 39.1127 13.3838C39.0448 13.3657 38.9798 13.3484 38.8617 13.3169C38.9193 13.3731 38.9396 13.4036 38.9697 13.4211C40.6217 14.446 42.2958 15.4359 44.093 16.1917C45.6339 16.8415 47.243 17.2613 48.8964 17.5045C49.2863 17.5614 49.6841 17.5889 50.0785 17.5936C50.3247 17.5965 50.5789 17.5575 50.8215 17.5029C51.2034 17.4131 51.4735 17.1742 51.6268 16.8162C51.7648 16.4918 51.7088 16.1942 51.4757 15.931C51.2543 15.6834 50.9828 15.5042 50.6778 15.3789C50.1474 15.162 49.5927 15.0235 49.0305 14.9364C47.9735 14.7706 46.9125 14.6195 45.8522 14.478C44.8192 14.3407 43.7836 14.2246 42.7467 14.1019C42.6949 14.0944 42.6429 14.0994 42.5887 14.1006C44.8561 15.0384 47.2276 15.5893 49.6315 16.0201L49.6353 16.018ZM46.4434 20.2204C44.209 20.4065 42.173 19.832 40.3159 18.6047C39.9395 18.3567 39.5737 18.0927 39.2087 17.8257C38.2852 17.1522 37.3014 16.5851 36.262 16.1068C35.682 15.839 35.1112 15.5485 34.5495 15.2479C33.7246 14.808 32.968 14.267 32.2554 13.6685C32.1932 13.6174 32.131 13.5663 32.0424 13.5426C32.0735 13.5917 32.1 13.6459 32.1349 13.6929C32.5449 14.2515 32.9428 14.8193 33.3694 15.3634C34.9542 17.3787 36.9197 18.9207 39.27 19.9622C40.5931 20.5507 41.9832 20.843 43.4353 20.8817C44.4916 20.909 45.4956 20.7308 46.4681 20.3401C46.5353 20.314 46.6011 20.2813 46.669 20.2523L46.6608 20.2124C46.5873 20.2148 46.5146 20.2143 46.4434 20.2204ZM44.3573 24.5482C44.6312 24.1658 44.8005 23.7367 44.9035 23.2836C44.9824 22.9434 44.9039 22.6115 44.7912 22.2893C44.6445 21.8701 44.4047 21.5141 44.1016 21.1819C43.1818 21.2004 42.2683 21.1483 41.3538 20.9704C42.2509 21.8598 43.1209 22.7672 43.8744 23.7786L43.8405 23.8104C43.7741 23.7393 43.7049 23.6674 43.6423 23.5942C42.9061 22.7539 42.1601 21.9267 41.3388 21.1674C41.1181 20.964 40.8822 20.8289 40.5898 20.7509C39.4984 20.466 38.4965 19.9663 37.5274 19.4031C37.3548 19.3037 37.1837 19.1984 36.9953 19.1104C39.0763 21.2109 40.9035 23.5138 42.6139 25.9332C43.2601 25.5433 43.9105 25.1734 44.3603 24.549L44.3573 24.5482ZM24.258 28.9269C24.5867 28.5057 25.0568 28.2762 25.5002 28.005C24.4997 25.2536 23.557 22.4988 23.0124 19.6177C23.0142 19.6935 23.01 19.7678 23.0155 19.8415C23.0812 21.1029 23.1469 22.3642 23.2088 23.6277C23.2321 24.0705 23.2465 24.511 23.2668 24.953C23.3501 26.6902 23.4304 28.4266 23.5128 30.1667C23.5158 30.2146 23.5216 30.2633 23.5246 30.3112C23.6744 29.8015 23.9294 29.3481 24.2573 28.9298L24.258 28.9269ZM28.8193 36.9847C29.128 37.155 29.4267 37.3509 29.7507 37.4876C30.4666 37.7916 31.1959 37.7757 31.9261 37.5088C32.1895 37.4125 32.4055 37.2566 32.5693 37.0364C32.6883 36.8766 32.8021 36.7122 32.9058 36.5388C33.1405 36.1491 33.471 35.8855 33.8992 35.7296C34.2117 35.6151 34.5308 35.5117 34.8311 35.372C35.2144 35.1947 35.5812 34.9847 35.9566 34.7896C36.0082 34.7625 36.0549 34.7184 36.095 34.6632C35.8955 34.7105 35.6972 34.7769 35.4952 34.7984C35.1527 34.8358 34.803 34.865 34.4597 34.8583C34.0497 34.8526 33.6421 34.791 33.2345 34.7765C32.9803 34.7683 32.7206 34.7807 32.4679 34.8138C32.1313 34.8528 31.8572 35.0247 31.6292 35.2717C31.4096 35.5115 31.1929 35.7521 30.963 35.9829C30.7904 36.1536 30.6105 36.3161 30.4191 36.4629C29.94 36.8313 29.3872 36.9446 28.7922 36.8738C28.7803 36.8707 28.7654 36.8792 28.7207 36.8924C28.7667 36.933 28.7959 36.9659 28.8289 36.9841L28.8193 36.9847ZM26.3979 29.0329C26.1381 29.2808 25.8805 29.5324 25.6198 29.7833C25.7439 30.922 25.8151 32.0686 26.0975 33.1836C26.4168 34.4435 27.0342 35.5254 28.0281 36.3842C28.1978 36.5299 28.3833 36.6171 28.6233 36.6309C27.3932 34.2266 26.6561 31.6962 26.4635 29.0127C26.436 29.021 26.41 29.0235 26.3972 29.0358L26.3979 29.0329ZM23.9382 32.2087C24.0451 31.7881 24.1638 31.3706 24.253 30.9452C24.35 30.4905 24.5687 30.1248 24.9534 29.86C25.4401 29.5218 25.8584 29.1088 26.2693 28.6876C26.7466 28.1961 27.1322 27.6457 27.4247 27.0295C27.4469 26.9821 27.4603 26.9322 27.4937 26.8438C27.4389 26.8825 27.4135 26.8946 27.3991 26.9128C26.9005 27.4833 26.2936 27.9151 25.6352 28.2797C25.4713 28.3711 25.3212 28.4818 25.1638 28.5843C24.6054 28.9536 24.2736 29.4807 24.0995 30.1159C23.9764 30.573 23.9518 31.0408 23.9117 31.5075C23.886 31.8147 23.8565 32.1241 23.8278 32.4306L23.8633 32.44C23.8897 32.3654 23.9191 32.2916 23.9404 32.2124L23.9382 32.2087Z" fill="#C23F3F"/>
<path d="M28.2044 14.5825C28.2333 14.675 28.248 14.7731 28.2911 14.86C28.52 15.3388 28.748 15.8205 28.9918 16.2908C29.5542 17.3768 30.1578 18.4393 30.8512 19.4503C31.036 19.7163 31.2395 19.9716 31.4355 20.2312C31.4747 20.2857 31.5259 20.3307 31.5725 20.3809C31.5861 20.3656 31.5907 20.3606 31.5922 20.3547C31.5938 20.3488 31.5962 20.3401 31.594 20.3363C30.2607 18.539 29.2343 16.5659 28.2528 14.5671L28.2036 14.5854L28.2044 14.5825Z" fill="#C23F3F"/>
</g>
</svg>
